<svg xmlns="http://www.w3.org/2000/svg" viewBox="2091 2623 98.568 16">
  <defs>
    <style>
      .cls-1 {
        fill: #fff;
      }
    </style>
  </defs>
  <g id="Group_1034" data-name="Group 1034" transform="translate(2091 2623)">
    <path id="Path_1585" data-name="Path 1585" class="cls-1" d="M8.4,0l2.608,5.271L16.82,6.1l-4.208,4.1L13.607,16,8.4,13.257,3.213,16l.995-5.795L0,6.1l5.808-.834Z"/>
    <path id="Path_1586" data-name="Path 1586" class="cls-1" d="M160.4,0l2.608,5.271,5.808.834-4.208,4.1L165.607,16l-5.2-2.743L155.213,16l.995-5.795L152,6.1l5.808-.834Z" transform="translate(-131.563)"/>
    <path id="Path_1587" data-name="Path 1587" class="cls-1" d="M312.4,0l2.608,5.271,5.808.834-4.208,4.1L317.607,16l-5.2-2.743L307.213,16l.995-5.795L304,6.1l5.808-.834Z" transform="translate(-263.126)"/>
    <path id="Path_1588" data-name="Path 1588" class="cls-1" d="M464.4,0l2.608,5.271,5.808.834-4.208,4.1L469.607,16l-5.2-2.743L459.213,16l.995-5.795L456,6.1l5.808-.834Z" transform="translate(-394.689)"/>
    <path id="Path_1589" data-name="Path 1589" class="cls-1" d="M616.4,0l2.608,5.271,5.808.834-4.208,4.1L621.607,16l-5.2-2.743L611.213,16l.995-5.795L608,6.1l5.808-.834Z" transform="translate(-526.252)"/>
  </g>
</svg>
